<svg id="visual" viewBox="0 0 1920 1080" width="1920" height="1080" xmlns="http://www.w3.org/2000/svg" xmlns:xlink="http://www.w3.org/1999/xlink" version="1.1"><path d="M0 174L175 217L349 120L524 152L698 228L873 195L1047 120L1222 141L1396 271L1571 195L1745 131L1920 120L1920 0L1745 0L1571 0L1396 0L1222 0L1047 0L873 0L698 0L524 0L349 0L175 0L0 0Z" fill="#44475a"></path><path d="M0 368L175 530L349 519L524 671L698 509L873 606L1047 660L1222 660L1396 627L1571 552L1745 627L1920 282L1920 118L1745 129L1571 193L1396 269L1222 139L1047 118L873 193L698 226L524 150L349 118L175 215L0 172Z" fill="#4c516c"></path><path d="M0 833L175 703L349 757L524 854L698 714L873 800L1047 919L1222 822L1396 908L1571 789L1745 800L1920 725L1920 280L1745 625L1571 550L1396 625L1222 658L1047 658L873 604L698 507L524 669L349 517L175 528L0 366Z" fill="#545c7e"></path><path d="M0 973L175 887L349 908L524 984L698 876L873 930L1047 995L1222 962L1396 984L1571 854L1745 973L1920 897L1920 723L1745 798L1571 787L1396 906L1222 820L1047 917L873 798L698 712L524 852L349 755L175 701L0 831Z" fill="#5b6791"></path><path d="M0 1081L175 1081L349 1081L524 1081L698 1081L873 1081L1047 1081L1222 1081L1396 1081L1571 1081L1745 1081L1920 1081L1920 895L1745 971L1571 852L1396 982L1222 960L1047 993L873 928L698 874L524 982L349 906L175 885L0 971Z" fill="#6272a4"></path></svg>